# xmcd
#
# Track frame offsets:
#	150
#	17945
#	29189
#	44687
#	61737
#	76631
#	95469
#	113430
#	127141
#	142883
#	158742
#	173899
#	192112
#	208221
#	225093
#	240614
#	257726
#	275500
#
# Disc length: 3879 seconds
#
# Revision: 1
# Processed by: cddbd v1.5.2PL0 Copyright (c) Steve Scherf et al.
# Submitted via: audiograbber 1.83.01
#
DISCID=f10f2512
DTITLE=Various Artist - COUNTRY DEC 2015
DYEAR=2015
DGENRE=Country
TTITLE0=DARIUS RUCKER - SOUTHERN STYLE
TTITLE1=HOME FREE - ELVIRA
TTITLE2=DAVE and WHITNEY - ALIBI
TTITLE3=RYAN KINDER - TONIGHT
TTITLE4=MADDIE and TAE - SHUT UP AND FISH
TTITLE5=DIERKS BENTLEY - RISER
TTITLE6=BROTHERS OSBORNE - STAY A LITTLE LONGER
TTITLE7=LINDSAY ELI - BY THE WAY
TTITLE8=LITTLE BIG TOWN - PAIN KILLER
TTITLE9=CHRIS JANSON - POWER OF POSITIVE DRINKIN
TTITLE10=JON PARDI - HEAD OVER BOOTS
TTITLE11=LUKE BRYAN - STRIP IT DOWN
TTITLE12=KIP MOORE - RUNNING FOR YOU
TTITLE13=KEITH URBAN - JOHN COUGAR JOHN DEERE
TTITLE14=BLACKJACK BILLY - NIGHT LIGHT
TTITLE15=GEORGE STRAIT - COLD BEER CONVERSATION
TTITLE16=THOMAS RHETT - DIE A HAPPY MAN
TTITLE17=DYLAN SCOTT - CRAZY OVER ME
EXTD=
EXTT0=
EXTT1=
EXTT2=
EXTT3=
EXTT4=
EXTT5=
EXTT6=
EXTT7=
EXTT8=
EXTT9=
EXTT10=
EXTT11=
EXTT12=
EXTT13=
EXTT14=
EXTT15=
EXTT16=
EXTT17=
PLAYORDER=
